<svg width="16" height="16" viewBox="0 0 16 16" fill="none" xmlns="http://www.w3.org/2000/svg">
<path d="M7.99999 9.33317L11.3333 6.33317M12.6667 9.33317C12.6667 11.9105 10.5773 13.9998 7.99999 13.9998C5.42267 13.9998 3.33333 11.9105 3.33333 9.33317C3.33333 6.75584 5.42267 4.6665 7.99999 4.6665C10.5773 4.6665 12.6667 6.75584 12.6667 9.33317Z" stroke="#A1A1A1" stroke-miterlimit="10" stroke-linecap="round" stroke-linejoin="round"/>
<path d="M2.83333 5.50016C3.29357 5.50016 3.66667 5.12707 3.66667 4.66683C3.66667 4.20659 3.29357 3.8335 2.83333 3.8335C2.3731 3.8335 2 4.20659 2 4.66683C2 5.12707 2.3731 5.50016 2.83333 5.50016Z" fill="#A1A1A1"/>
<path d="M8.11111 3.00016C8.57135 3.00016 8.94445 2.62707 8.94445 2.16683C8.94445 1.70659 8.57135 1.3335 8.11111 1.3335C7.65088 1.3335 7.27778 1.70659 7.27778 2.16683C7.27778 2.62707 7.65088 3.00016 8.11111 3.00016Z" fill="#A1A1A1"/>
<path d="M13.3889 5.50016C13.8491 5.50016 14.2222 5.12707 14.2222 4.66683C14.2222 4.20659 13.8491 3.8335 13.3889 3.8335C12.9287 3.8335 12.5556 4.20659 12.5556 4.66683C12.5556 5.12707 12.9287 5.50016 13.3889 5.50016Z" fill="#A1A1A1"/>
</svg>
