<svg width="16" height="16" viewBox="0 0 16 16" fill="none" xmlns="http://www.w3.org/2000/svg">
<path d="M2.24282 7.56292L1.80574 7.3201L1.3201 8.19426L1.75718 8.43708L2 8L2.24282 7.56292ZM8 11.3333L7.75718 11.7704C7.90819 11.8543 8.09181 11.8543 8.24282 11.7704L8 11.3333ZM14.2428 8.43708L14.6799 8.19426L14.1943 7.3201L13.7572 7.56292L14 8L14.2428 8.43708ZM2.24282 10.2296L1.80574 9.98677L1.3201 10.8609L1.75718 11.1037L2 10.6667L2.24282 10.2296ZM8 14L7.75718 14.4371C7.90819 14.521 8.09181 14.521 8.24282 14.4371L8 14ZM14.2428 11.1037L14.6799 10.8609L14.1943 9.98677L13.7572 10.2296L14 10.6667L14.2428 11.1037ZM2 5.33333L1.75718 4.89625L0.970437 5.33333L1.75718 5.77041L2 5.33333ZM8 2L8.24282 1.56292C8.09181 1.47903 7.90819 1.47903 7.75718 1.56292L8 2ZM14 5.33333L14.2428 5.77041L15.0296 5.33333L14.2428 4.89625L14 5.33333ZM8 8.66667L7.75718 9.10375C7.90819 9.18764 8.09181 9.18764 8.24282 9.10375L8 8.66667ZM2 8L1.75718 8.43708L7.75718 11.7704L8 11.3333L8.24282 10.8963L2.24282 7.56292L2 8ZM8 11.3333L8.24282 11.7704L14.2428 8.43708L14 8L13.7572 7.56292L7.75718 10.8963L8 11.3333ZM2 10.6667L1.75718 11.1037L7.75718 14.4371L8 14L8.24282 13.5629L2.24282 10.2296L2 10.6667ZM8 14L8.24282 14.4371L14.2428 11.1037L14 10.6667L13.7572 10.2296L7.75718 13.5629L8 14ZM2 5.33333L2.24282 5.77041L8.24282 2.43708L8 2L7.75718 1.56292L1.75718 4.89625L2 5.33333ZM8 2L7.75718 2.43708L13.7572 5.77041L14 5.33333L14.2428 4.89625L8.24282 1.56292L8 2ZM14 5.33333L13.7572 4.89625L7.75718 8.22959L8 8.66667L8.24282 9.10375L14.2428 5.77041L14 5.33333ZM8 8.66667L8.24282 8.22959L2.24282 4.89625L2 5.33333L1.75718 5.77041L7.75718 9.10375L8 8.66667Z" fill="#A1A1A1"/>
</svg>
