<svg width="16" height="16" viewBox="0 0 16 16" fill="none" xmlns="http://www.w3.org/2000/svg">
<path d="M13.3312 6.63854C13.3312 6.63854 12.2326 5.19763 10.8519 5.11522C9.96089 5.06126 9.74503 5.18342 9.70634 5.27439C9.65105 4.80263 9.25813 2.617 6.54368 2.15381C6.8902 4.71005 8.32128 4.04398 9.16406 5.80588C9.16406 5.80588 7.74186 3.82208 5.40372 4.55248C5.40372 4.55248 6.25593 6.38849 8.77665 6.76362C8.77665 6.76362 8.97865 7.47415 9.03954 7.59923C9.03954 7.59923 5.15743 5.52163 3.97868 9.50907C3.10143 9.30517 2.80718 10.2824 3.81547 10.95C3.81547 10.95 3.98703 10.2509 4.40479 10.0434C4.40479 10.0434 3.50829 11.0694 4.56251 12.2982H8.34631C8.43774 12.1428 8.84238 11.3251 7.84162 10.7061C8.54805 10.6958 9.12306 12.0633 9.74174 12.3077H10.6415C10.672 12.2317 10.7356 12.0044 10.5862 11.7998C10.3557 11.5286 9.85123 11.5653 9.85572 11.0637C10.0299 8.73027 13.4395 9.44682 13.3311 6.63854H13.3312Z" fill="white"/>
</svg>
